<svg xmlns="http://www.w3.org/2000/svg" xmlns:xlink="http://www.w3.org/1999/xlink" width="48" zoomAndPan="magnify" viewBox="0 0 36 36.000001" height="48" preserveAspectRatio="xMidYMid meet" version="1.2"><defs><clipPath id="004e9954e4"><path d="M 0.488281 0 L 35.511719 0 L 35.511719 35.027344 L 0.488281 35.027344 Z M 0.488281 0 "/></clipPath><clipPath id="0e260c378d"><path d="M 1.433594 5.46875 L 34.273438 5.46875 L 34.273438 25.902344 L 1.433594 25.902344 Z M 1.433594 5.46875 "/></clipPath><clipPath id="59e86807a0"><path d="M 12.382812 11.894531 L 23.328125 11.894531 L 23.328125 22.839844 L 12.382812 22.839844 Z M 12.382812 11.894531 "/></clipPath></defs><g id="24b32847b6"><g clip-rule="nonzero" clip-path="url(#0e260c378d)"><path style=" stroke:none;fill-rule:nonzero;fill:#3fb8f6;fill-opacity:1;" d="M 7.878906 13 L 7.898438 13 C 8.128906 11.515625 8.839844 10.191406 9.878906 9.226562 C 11.035156 8.152344 12.574219 7.515625 14.265625 7.515625 C 14.917969 7.515625 15.535156 7.613281 16.132812 7.785156 C 16.574219 7.917969 16.996094 8.09375 17.402344 8.324219 C 17.941406 7.515625 18.652344 6.84375 19.496094 6.34375 C 20.460938 5.785156 21.554688 5.476562 22.75 5.476562 C 24.519531 5.476562 26.132812 6.1875 27.289062 7.363281 C 28.460938 8.515625 29.175781 10.132812 29.175781 11.902344 C 29.175781 12.191406 29.15625 12.5 29.117188 12.785156 C 29.097656 12.902344 29.097656 13 29.078125 13.113281 C 30.464844 13.382812 31.714844 14.113281 32.617188 15.132812 C 33.65625 16.269531 34.273438 17.769531 34.273438 19.421875 C 34.273438 21.210938 33.558594 22.808594 32.386719 23.984375 C 31.214844 25.136719 29.617188 25.867188 27.828125 25.867188 L 7.878906 25.867188 C 6.089844 25.867188 4.492188 25.136719 3.320312 23.984375 C 2.164062 22.808594 1.433594 21.210938 1.433594 19.421875 C 1.433594 17.652344 2.164062 16.039062 3.320312 14.882812 C 4.492188 13.710938 6.089844 13 7.878906 13 Z M 8.089844 13.980469 C 8.050781 13.980469 7.976562 13.980469 7.878906 13.980469 C 6.378906 13.980469 5.011719 14.59375 4.03125 15.578125 C 3.050781 16.558594 2.433594 17.921875 2.433594 19.421875 C 2.433594 20.925781 3.050781 22.289062 4.03125 23.269531 C 5.011719 24.253906 6.378906 24.867188 7.878906 24.867188 L 27.828125 24.867188 C 29.347656 24.867188 30.695312 24.253906 31.675781 23.269531 C 32.675781 22.289062 33.273438 20.925781 33.273438 19.421875 C 33.273438 18.019531 32.753906 16.75 31.886719 15.789062 C 31 14.808594 29.789062 14.152344 28.40625 14.019531 L 27.828125 13.960938 L 27.980469 13.382812 C 28.058594 13.152344 28.097656 12.902344 28.136719 12.652344 C 28.171875 12.421875 28.191406 12.171875 28.191406 11.902344 C 28.191406 10.402344 27.578125 9.035156 26.597656 8.054688 C 25.617188 7.074219 24.25 6.457031 22.75 6.457031 C 21.75 6.457031 20.804688 6.726562 19.996094 7.207031 C 19.171875 7.6875 18.476562 8.402344 17.996094 9.246094 L 17.726562 9.707031 L 17.285156 9.421875 C 16.84375 9.113281 16.363281 8.882812 15.84375 8.726562 C 15.34375 8.574219 14.824219 8.496094 14.265625 8.496094 C 12.839844 8.496094 11.535156 9.054688 10.570312 9.957031 C 9.589844 10.863281 8.9375 12.132812 8.839844 13.535156 L 8.800781 14.039062 L 8.300781 14 C 8.207031 14 8.148438 14 8.089844 13.980469 Z M 8.089844 13.980469 "/><path style=" stroke:none;fill-rule:nonzero;fill:#ffffff;fill-opacity:1;" d="M 8.089844 13.980469 C 8.050781 13.980469 7.976562 13.980469 7.878906 13.980469 C 6.378906 13.980469 5.011719 14.59375 4.03125 15.578125 C 3.050781 16.558594 2.433594 17.921875 2.433594 19.421875 C 2.433594 20.925781 3.050781 22.289062 4.03125 23.269531 C 5.011719 24.253906 6.378906 24.867188 7.878906 24.867188 L 27.828125 24.867188 C 29.347656 24.867188 30.695312 24.253906 31.675781 23.269531 C 32.675781 22.289062 33.273438 20.925781 33.273438 19.421875 C 33.273438 18.019531 32.753906 16.75 31.886719 15.789062 C 31 14.808594 29.789062 14.152344 28.40625 14.019531 L 27.828125 13.960938 L 27.980469 13.382812 C 28.058594 13.152344 28.097656 12.902344 28.136719 12.652344 C 28.171875 12.421875 28.191406 12.171875 28.191406 11.902344 C 28.191406 10.402344 27.578125 9.035156 26.597656 8.054688 C 25.617188 7.074219 24.25 6.457031 22.75 6.457031 C 21.75 6.457031 20.804688 6.726562 19.996094 7.207031 C 19.171875 7.6875 18.476562 8.402344 17.996094 9.246094 L 17.726562 9.707031 L 17.285156 9.421875 C 16.84375 9.113281 16.363281 8.882812 15.84375 8.726562 C 15.34375 8.574219 14.824219 8.496094 14.265625 8.496094 C 12.839844 8.496094 11.535156 9.054688 10.570312 9.957031 C 9.589844 10.863281 8.9375 12.132812 8.839844 13.535156 L 8.800781 14.039062 L 8.300781 14 C 8.207031 14 8.148438 14 8.089844 13.980469 Z M 8.089844 13.980469 "/></g><g clip-rule="nonzero" clip-path="url(#59e86807a0)"><path style=" stroke:none;fill-rule:nonzero;fill:#0d2968;fill-opacity:1;" d="M 17.855469 11.894531 C 14.832031 11.894531 12.382812 14.34375 12.382812 17.367188 C 12.382812 20.390625 14.832031 22.839844 17.855469 22.839844 C 20.671875 22.839844 22.988281 20.710938 23.292969 17.976562 C 23.203125 17.976562 22.324219 17.976562 22.0625 17.976562 C 21.765625 20.035156 19.996094 21.625 17.855469 21.625 C 15.507812 21.625 13.597656 19.714844 13.597656 17.367188 C 13.597656 15.019531 15.507812 13.109375 17.855469 13.109375 C 19.183594 13.109375 20.371094 13.722656 21.152344 14.679688 L 19.679688 16.152344 L 23.328125 16.152344 L 23.328125 12.503906 L 22.011719 13.816406 C 21.007812 12.640625 19.519531 11.894531 17.855469 11.894531 Z M 17.855469 11.894531 "/></g><g style="fill:#3fb8f6;fill-opacity:1;"><g transform="translate(20.527905, 14.667818)"><path style="stroke:none" d="M -5.03125 5.125 C -5.3125 4.988281 -5.453125 4.835938 -5.453125 4.671875 C -5.453125 4.585938 -5.414062 4.472656 -5.34375 4.328125 L -3.390625 0.359375 C -3.335938 0.253906 -3.253906 0.164062 -3.140625 0.09375 C -3.035156 0.03125 -2.925781 0 -2.8125 0 L -2.75 0 C -2.625 0 -2.507812 0.03125 -2.40625 0.09375 C -2.300781 0.164062 -2.222656 0.253906 -2.171875 0.359375 L -0.21875 4.328125 C -0.144531 4.472656 -0.109375 4.585938 -0.109375 4.671875 C -0.109375 4.835938 -0.25 4.988281 -0.53125 5.125 C -0.6875 5.207031 -0.800781 5.25 -0.875 5.25 C -0.957031 5.25 -1.019531 5.238281 -1.0625 5.21875 C -1.113281 5.195312 -1.15625 5.160156 -1.1875 5.109375 C -1.226562 5.054688 -1.265625 4.992188 -1.296875 4.921875 C -1.335938 4.859375 -1.429688 4.664062 -1.578125 4.34375 C -1.722656 4.019531 -1.878906 3.675781 -2.046875 3.3125 C -2.222656 2.945312 -2.382812 2.597656 -2.53125 2.265625 C -2.675781 1.941406 -2.757812 1.765625 -2.78125 1.734375 L -4.203125 4.84375 C -4.234375 4.925781 -4.265625 4.992188 -4.296875 5.046875 C -4.378906 5.179688 -4.484375 5.25 -4.609375 5.25 C -4.734375 5.25 -4.875 5.207031 -5.03125 5.125 Z M -5.03125 5.125 "/></g></g></g></svg>